<svg width="25" height="25" viewBox="0 0 25 25" fill="none" xmlns="http://www.w3.org/2000/svg">
  <g clip-path="url(#clip0_48_1018)">
    <path
      d="M16.0156 11.1327C16.0951 11.1937 16.0951 11.1937 16.1742 11.2727C16.2046 11.3027 16.235 11.3327 16.2664 11.3636C16.2993 11.3968 16.3323 11.4301 16.3662 11.4643C16.4016 11.4994 16.4369 11.5345 16.4734 11.5707C16.5922 11.6888 16.7105 11.8075 16.8288 11.9261C16.9137 12.0108 16.9987 12.0954 17.0837 12.1799C17.2907 12.3862 17.4974 12.5928 17.7039 12.7996C17.8718 12.9677 18.0398 13.1356 18.208 13.3035C18.2319 13.3274 18.2558 13.3512 18.2804 13.3759C18.329 13.4244 18.3776 13.4729 18.4262 13.5214C18.8821 13.9766 19.3374 14.4322 19.7927 14.888C20.2091 15.3049 20.626 15.7212 21.0432 16.1372C21.4716 16.5644 21.8996 16.992 22.3272 17.4199C22.5673 17.6602 22.8075 17.9003 23.0481 18.14C23.2744 18.3655 23.5002 18.5915 23.7256 18.8179C23.8085 18.9009 23.8915 18.9838 23.9746 19.0664C24.0882 19.1793 24.201 19.2927 24.3138 19.4064C24.3634 19.4553 24.3634 19.4553 24.414 19.5051C24.6775 19.7728 24.8255 20.0188 24.826 20.4069C24.827 20.4537 24.8279 20.5005 24.8289 20.5487C24.7669 20.9436 24.5263 21.2054 24.2498 21.4774C24.2152 21.5121 24.1805 21.5469 24.1448 21.5827C24.0717 21.6556 23.9985 21.7283 23.925 21.8008C23.8131 21.9112 23.7022 22.0226 23.5913 22.1341C23.52 22.2051 23.4485 22.2761 23.377 22.3471C23.3442 22.3801 23.3113 22.4131 23.2774 22.4471C22.9787 22.74 22.7031 22.9329 22.2778 22.9613C21.8444 22.9526 21.5905 22.749 21.3009 22.4532C21.2469 22.3994 21.2469 22.3994 21.1917 22.3446C21.0716 22.2249 20.9523 22.1042 20.833 21.9836C20.7469 21.8974 20.6607 21.8113 20.5745 21.7252C20.3892 21.54 20.2043 21.3544 20.0197 21.1684C19.7529 20.8996 19.4853 20.6314 19.2176 20.3634C18.7833 19.9285 18.3495 19.4931 17.916 19.0573C17.495 18.6341 17.0738 18.2111 16.6522 17.7885C16.6262 17.7625 16.6002 17.7364 16.5734 17.7095C16.443 17.5788 16.3125 17.448 16.182 17.3172C15.1004 16.233 14.0196 15.148 12.9395 14.0623C13.0198 13.8162 13.1164 13.6179 13.2538 13.4001C13.2858 13.3491 13.2858 13.3491 13.3185 13.2971C13.5379 12.9562 13.7902 12.6528 14.0625 12.3534C14.0903 12.3216 14.118 12.2898 14.1466 12.257C14.4731 11.9038 15.5257 10.9488 16.0156 11.1327Z"
      fill="#ffffff" />
    <path
      d="M4.58984 9.00885C4.63617 9.00835 4.6825 9.00784 4.73023 9.00732C5.22801 9.09195 5.53714 9.46478 5.87574 9.80638C5.93565 9.86611 5.99561 9.9258 6.0556 9.98544C6.21775 10.1469 6.37929 10.309 6.5407 10.4712C6.70995 10.6411 6.8797 10.8106 7.04938 10.9801C7.33412 11.2647 7.61846 11.5497 7.90256 11.8349C8.23084 12.1645 8.55972 12.4935 8.88893 12.8221C9.20599 13.1386 9.52262 13.4556 9.83907 13.7727C9.9736 13.9075 10.1083 14.0422 10.2431 14.1767C10.4017 14.3352 10.5601 14.494 10.7181 14.6531C10.7761 14.7114 10.8342 14.7695 10.8925 14.8275C10.9721 14.9068 11.0512 14.9866 11.1303 15.0665C11.1746 15.1109 11.219 15.1554 11.2647 15.2013C11.5031 15.4791 11.5788 15.754 11.5723 16.1133C11.493 16.7258 10.8473 17.1916 10.4322 17.6096C10.3761 17.6663 10.3202 17.7232 10.2645 17.7803C10.1826 17.8643 10.1 17.9477 10.0172 18.031C9.99283 18.0562 9.96845 18.0814 9.94334 18.1074C9.72488 18.3246 9.48029 18.4797 9.17358 18.5319C9.12726 18.5314 9.08093 18.5309 9.0332 18.5303C8.96371 18.5311 8.96371 18.5311 8.89282 18.5319C8.39381 18.447 8.08282 18.0719 7.74282 17.7299C7.68243 17.6698 7.62199 17.6098 7.56152 17.5498C7.39805 17.3875 7.2352 17.2245 7.07249 17.0613C6.93641 16.925 6.80002 16.789 6.66363 16.6529C6.34185 16.332 6.02058 16.0105 5.69962 15.6888C5.36883 15.3572 5.03725 15.0263 4.70527 14.6959C4.41985 14.4118 4.13491 14.1272 3.85035 13.8423C3.68056 13.6722 3.51061 13.5024 3.3402 13.333C3.18002 13.1737 3.02044 13.0138 2.86131 12.8535C2.80292 12.7949 2.74433 12.7364 2.68551 12.6782C2.60503 12.5985 2.52535 12.5181 2.44582 12.4375C2.40109 12.3927 2.35637 12.348 2.31028 12.3019C2.11485 12.0535 2.0145 11.7675 2.03217 11.4497C2.09496 11.0398 2.37175 10.7267 2.65751 10.4466C2.692 10.412 2.7265 10.3774 2.76203 10.3417C2.8345 10.2693 2.90727 10.1972 2.98032 10.1254C3.09141 10.016 3.20128 9.90541 3.31106 9.79468C3.38204 9.72404 3.45309 9.65346 3.52421 9.58296C3.55667 9.55026 3.58914 9.51755 3.62258 9.48385C3.901 9.21228 4.18716 9.00447 4.58984 9.00885Z"
      fill="#ffffff" />
    <path
      d="M13.4277 0.170959C13.4741 0.170456 13.5204 0.169952 13.5681 0.169434C14.0659 0.254058 14.375 0.626892 14.7136 0.968493C14.7735 1.02822 14.8335 1.0879 14.8935 1.14755C15.0556 1.30902 15.2172 1.4711 15.3786 1.63332C15.5478 1.80325 15.7176 1.97268 15.8873 2.14219C16.172 2.42679 16.4563 2.71179 16.7405 2.99703C17.0687 3.32661 17.3976 3.65557 17.7268 3.98421C18.0439 4.30074 18.3605 4.61768 18.677 4.93481C18.8115 5.06963 18.9462 5.20429 19.0809 5.33885C19.2396 5.4973 19.398 5.65612 19.556 5.81521C19.614 5.87349 19.6721 5.93163 19.7304 5.98964C19.81 6.06895 19.8891 6.1487 19.9681 6.22857C20.0125 6.27306 20.0569 6.31754 20.1026 6.36338C20.341 6.64126 20.4167 6.91613 20.4102 7.27545C20.3309 7.88793 19.6852 8.35375 19.2701 8.7717C19.214 8.82838 19.1581 8.88529 19.1024 8.9424C19.0205 9.02646 18.9379 9.10984 18.8551 9.1931C18.8307 9.21833 18.8063 9.24356 18.7812 9.26955C18.5173 9.53194 18.2255 9.69596 17.8467 9.6955C17.7958 9.69657 17.745 9.69764 17.6926 9.69874C17.2106 9.60809 16.8685 9.17512 16.5364 8.84209C16.4764 8.78252 16.4165 8.72299 16.3565 8.66348C16.1945 8.50251 16.0329 8.34108 15.8714 8.17952C15.7364 8.04446 15.6011 7.90961 15.4658 7.77476C15.1467 7.45659 14.828 7.13803 14.5095 6.81923C14.1814 6.4907 13.8524 6.16291 13.5232 5.83546C13.24 5.55383 12.9574 5.27172 12.6751 4.98924C12.5067 4.82074 12.3381 4.65242 12.1691 4.48456C12.0102 4.32675 11.8519 4.16836 11.694 4.00951C11.6361 3.95143 11.578 3.89356 11.5196 3.83591C10.9043 3.22746 10.9043 3.22746 10.8704 2.73444C10.9069 2.03975 11.569 1.55467 12.0287 1.09171C12.0848 1.03502 12.1407 0.978115 12.1964 0.921C12.2784 0.836946 12.361 0.753567 12.4437 0.670303C12.4681 0.645074 12.4925 0.619844 12.5176 0.59385C12.7717 0.341277 13.0613 0.166977 13.4277 0.170959Z"
      fill="#ffffff" />
    <path
      d="M10.6934 4.44336C10.8676 4.51745 10.9792 4.61948 11.1124 4.75296C11.1793 4.81972 11.1793 4.81972 11.2476 4.88783C11.2967 4.93727 11.3458 4.98673 11.3949 5.03619C11.4469 5.08818 11.4989 5.14015 11.5509 5.19209C11.6919 5.3331 11.8327 5.47441 11.9733 5.61578C12.1204 5.76349 12.2678 5.91093 12.4152 6.05839C12.6941 6.33765 12.9728 6.61715 13.2514 6.89675C13.5687 7.21506 13.8861 7.53309 14.2037 7.8511C14.8568 8.50524 15.5096 9.15973 16.1621 9.81445C16.0986 9.94155 16.0442 9.95145 15.9151 10.0079C15.8527 10.0359 15.8527 10.0359 15.789 10.0645C15.7439 10.0847 15.6989 10.1049 15.6525 10.1257C14.9156 10.4665 14.1556 10.917 13.5908 11.511C13.5254 11.5723 13.5254 11.5723 13.4277 11.5723C13.4162 11.5991 13.4046 11.626 13.3926 11.6537C13.3147 11.7956 13.2169 11.9051 13.1104 12.027C12.5555 12.6804 12.0655 13.4514 11.7676 14.2578C11.5736 14.231 11.4847 14.1397 11.3486 14.0036C11.3039 13.9593 11.2593 13.915 11.2133 13.8693C11.1642 13.8199 11.1151 13.7704 11.066 13.7209C11.0141 13.6691 10.9621 13.6173 10.9101 13.5655C10.7689 13.4248 10.6282 13.2836 10.4876 13.1424C10.3406 12.9948 10.1931 12.8476 10.0458 12.7003C9.79842 12.453 9.55136 12.2054 9.30448 11.9576C9.01871 11.6708 8.73252 11.3844 8.44608 11.0983C8.17086 10.8234 7.8959 10.5481 7.62109 10.2728C7.50397 10.1554 7.38676 10.0382 7.26948 9.921C7.13154 9.78316 6.99386 9.64508 6.85636 9.5068C6.80573 9.45597 6.75503 9.40522 6.70423 9.35457C6.63517 9.28566 6.56643 9.21642 6.49771 9.14716C6.45908 9.10843 6.42045 9.06969 6.38064 9.02978C6.29883 8.93555 6.29883 8.93555 6.29883 8.83789C6.32677 8.82469 6.35471 8.81149 6.38349 8.79788C7.26147 8.37966 8.19014 7.90532 8.87012 7.19013C8.93555 7.12891 8.93555 7.12891 9.0332 7.12891C9.04478 7.10203 9.05637 7.07515 9.0683 7.04746C9.14623 6.90561 9.24404 6.79609 9.35059 6.67419C9.91594 6.00916 10.3589 5.24866 10.6934 4.44336Z"
      fill="#ffffff" />
    <path
      d="M0 22.9004C4.81787 22.9004 9.63574 22.9004 14.5996 22.9004C14.5996 23.5933 14.5996 24.2861 14.5996 25C9.78174 25 4.96387 25 0 25C0 24.3071 0 23.6143 0 22.9004Z"
      fill="#ffffff" />
    <path
      d="M3.147 19.762C3.18378 19.7618 3.22055 19.7615 3.25845 19.7613C3.38177 19.7605 3.50508 19.7605 3.6284 19.7605C3.71679 19.7601 3.80518 19.7597 3.89357 19.7592C4.13378 19.7581 4.37399 19.7577 4.61421 19.7575C4.76432 19.7573 4.91443 19.757 5.06453 19.7566C5.58832 19.7554 6.1121 19.7548 6.63588 19.7546C7.12393 19.7545 7.61196 19.753 8.10001 19.751C8.51913 19.7493 8.93824 19.7485 9.35737 19.7485C9.60764 19.7484 9.8579 19.748 10.1082 19.7466C10.3437 19.7453 10.5791 19.7452 10.8147 19.746C10.9009 19.7461 10.9872 19.7458 11.0735 19.745C11.9184 19.7378 11.9184 19.7378 12.207 20.0196C12.7241 20.5774 12.5 20.955 12.5 21.875C9.05176 21.875 5.60352 21.875 2.05078 21.875C2.05078 20.6055 2.05078 20.6055 2.24609 20.166C2.53785 19.8795 2.73336 19.7606 3.147 19.762Z"
      fill="#ffffff" />
  </g>
  <defs>
    <clipPath id="clip0_48_1018">
      <rect width="25" height="25" fill="white" />
    </clipPath>
  </defs>
</svg>