<svg width="24" height="25" viewBox="0 0 24 25" fill="none" xmlns="http://www.w3.org/2000/svg">
  <g clip-path="url(#clip0_224_1673)">
    <path
      d="M11.0124 3.27243V11.8217C11.0134 12.5321 10.7315 13.2135 10.2293 13.7158C9.72711 14.2181 9.04562 14.5 8.3352 14.4989H2.67721C1.96706 14.4999 1.28557 14.2181 0.783087 13.7158C0.280861 13.2135 -0.000763365 12.5321 1.55413e-06 11.8217V3.27243C-0.000745454 2.56227 0.280867 1.88079 0.783087 1.3783C1.28556 0.876076 1.96706 0.594452 2.67721 0.595216H8.3352C9.04562 0.59447 9.72709 0.876083 10.2293 1.3783C10.7316 1.88077 11.0134 2.56227 11.0124 3.27243ZM8.3352 16.2837H2.67721C1.96706 16.2827 1.28557 16.5646 0.783087 17.0668C0.280861 17.569 -0.000763365 18.2506 1.55413e-06 18.9609V21.7275C-0.000745454 22.4377 0.280867 23.1191 0.783087 23.6216C1.28556 24.1239 1.96706 24.4055 2.67721 24.4047H8.3352C9.04562 24.4055 9.72709 24.1239 10.2293 23.6216C10.7316 23.1191 11.0134 22.4377 11.0124 21.7275V18.9609C11.0134 18.2506 10.7315 17.569 10.2293 17.0668C9.72711 16.5646 9.04562 16.2827 8.3352 16.2837ZM21.1323 0.595216H15.4743C14.7639 0.59447 14.0824 0.876083 13.5802 1.3783C13.078 1.88077 12.7961 2.56227 12.7971 3.27243V21.7274C12.7961 22.4376 13.078 23.119 13.5802 23.6215C14.0824 24.1238 14.7639 24.4053 15.4743 24.4046H21.1323C21.8425 24.4053 22.5239 24.1238 23.0264 23.6215C23.5287 23.119 23.8102 22.4376 23.8095 21.7274V3.27243C23.8102 2.56227 23.5287 1.88079 23.0264 1.3783C22.5239 0.876076 21.8425 0.594452 21.1323 0.595216Z"
      fill="#ffffff" />
  </g>
  <defs>
    <clipPath id="clip0_224_1673">
      <rect width="23.8095" height="25" fill="white" />
    </clipPath>
  </defs>
</svg>