<!-- icon666.com - MILLIONS OF FREE VECTOR ICONS -->
<svg width="30px" height="30px" id="Capa_1" enable-background="new 0 0 512 512" viewBox="0 0 512 512" xmlns="http://www.w3.org/2000/svg">
	<g>
		<path d="m456 0h-400c-8.284 0-15 6.716-15 15v241c0 8.284 6.716 15 15 15h185v34h-17c-8.284 0-15 6.716-15 15v145c0 25.916 21.084 47 47 47s47-21.084 47-47v-145c0-8.284-6.716-15-15-15h-17v-34h185c8.284 0 15-6.716 15-15v-241c0-8.284-6.716-15-15-15zm-295.076 206.865c-11.88 0-38.885.135-40.924.135-8.292 0-15-6.728-15-15 0-11.569 0-107.302 0-120 0-8.284 6.716-15 15-15h35.141c30.581 0 58.333 36.553 35.377 67.314 10.009 8.7 16.482 21.583 16.482 35.686 0 25.403-21.1 46.865-46.076 46.865zm110.076-14.865c0 8.284-6.716 15-15 15s-15-6.716-15-15v-120c0-8.284 6.716-15 15-15s15 6.716 15 15zm128.167-27.042c-12.77 25.54-39.871 42.042-69.043 42.042h-10.124c-8.284 0-15-6.716-15-15v-120c0-8.284 6.716-15 15-15h10.124c56.15 0 94.167 57.708 69.043 107.958z" fill="#000000" style="fill: rgb(255, 255, 255);">
		</path>
		<path d="m169 100c0-5.953-7.512-13-13.859-13h-20.141v25.941c7.844-.029 16.53-.057 20.141-.057 6.476 0 13.859-6.863 13.859-12.884z" fill="#000000" style="fill: rgb(255, 255, 255);">
		</path>
		<path d="m160.924 143h-25.924v33.941c9.726-.037 21.382-.076 25.924-.076 8.414 0 16.076-8.038 16.076-16.865 0-8.897-7.663-17-16.076-17z" fill="#000000" style="fill: rgb(255, 255, 255);">
		</path>
		<path d="m335 87.248v89.505c15.991-1.627 30.309-11.16 37.333-25.211 14.054-28.104-5.061-61.011-37.333-64.294z" fill="#000000" style="fill: rgb(255, 255, 255);">
		</path>
	</g>
</svg>
