<?xml version="1.0" encoding="UTF-8"?>
<svg xmlns="http://www.w3.org/2000/svg" xmlns:xlink="http://www.w3.org/1999/xlink" width="25px" height="25px" viewBox="0 0 25 25" version="1.1">
<g id="surface1">
<path style="fill-rule:nonzero;fill:rgb(100%,100%,100%);fill-opacity:1;stroke-width:1;stroke-linecap:butt;stroke-linejoin:miter;stroke:rgb(100%,100%,100%);stroke-opacity:1;stroke-miterlimit:4;" d="M 2.168062 25.845625 L 6.068881 25.845625 L 6.068881 14.017893 L 2.168062 16.156215 Z M 2.168062 25.845625 " transform="matrix(0.904257,0,0,0.904257,0.00045188,0)"/>
<path style="fill-rule:nonzero;fill:rgb(100%,100%,100%);fill-opacity:1;stroke-width:1;stroke-linecap:butt;stroke-linejoin:miter;stroke:rgb(100%,100%,100%);stroke-opacity:1;stroke-miterlimit:4;" d="M 7.256838 13.369916 L 7.256838 25.845625 L 11.157656 25.845625 L 11.157656 18.424133 L 8.125126 12.894733 Z M 7.256838 13.369916 " transform="matrix(0.904257,0,0,0.904257,0.00045188,0)"/>
<path style="fill-rule:nonzero;fill:rgb(100%,100%,100%);fill-opacity:1;stroke-width:1;stroke-linecap:butt;stroke-linejoin:miter;stroke:rgb(100%,100%,100%);stroke-opacity:1;stroke-miterlimit:4;" d="M 12.345613 25.845625 L 16.242112 25.845625 L 16.242112 17.188658 L 12.345613 20.592695 Z M 12.345613 25.845625 " transform="matrix(0.904257,0,0,0.904257,0.00045188,0)"/>
<path style="fill-rule:nonzero;fill:rgb(100%,100%,100%);fill-opacity:1;stroke-width:1;stroke-linecap:butt;stroke-linejoin:miter;stroke:rgb(100%,100%,100%);stroke-opacity:1;stroke-miterlimit:4;" d="M 17.430069 25.845625 L 21.330888 25.845625 L 21.330888 12.743539 L 17.430069 16.151895 Z M 17.430069 25.845625 " transform="matrix(0.904257,0,0,0.904257,0.00045188,0)"/>
<path style="fill-rule:nonzero;fill:rgb(100%,100%,100%);fill-opacity:1;stroke-width:1;stroke-linecap:butt;stroke-linejoin:miter;stroke:rgb(100%,100%,100%);stroke-opacity:1;stroke-miterlimit:4;" d="M 22.518845 11.706776 L 22.518845 25.845625 L 26.419664 25.845625 L 26.419664 13.210082 L 23.797519 10.592257 Z M 22.518845 11.706776 " transform="matrix(0.904257,0,0,0.904257,0.00045188,0)"/>
<path style="fill-rule:nonzero;fill:rgb(100%,100%,100%);fill-opacity:1;stroke-width:1;stroke-linecap:butt;stroke-linejoin:miter;stroke:rgb(100%,100%,100%);stroke-opacity:1;stroke-miterlimit:4;" d="M 12.928792 17.935991 L 23.870956 8.29842 L 25.719849 10.147313 L 27.6465 1.797055 L 19.300562 3.723705 L 21.024179 5.451643 L 13.969875 11.663578 L 10.298008 5.214051 L -0.000499725 10.860087 L 1.926151 14.38076 L 8.764463 10.635455 Z M 12.928792 17.935991 " transform="matrix(0.904257,0,0,0.904257,0.00045188,0)"/>
</g>
</svg>
