<?xml version="1.0" encoding="UTF-8"?>
<svg xmlns="http://www.w3.org/2000/svg" xmlns:xlink="http://www.w3.org/1999/xlink" width="25px" height="25px" viewBox="0 0 25 25" version="1.1">
<g id="surface1">
<path style="fill-rule:nonzero;fill:rgb(100%,100%,100%);fill-opacity:1;stroke-width:1;stroke-linecap:butt;stroke-linejoin:miter;stroke:rgb(100%,100%,100%);stroke-opacity:1;stroke-miterlimit:4;" d="M 113.883913 103.093834 C 124.443872 91.971359 131.142925 76.27205 131.142925 61.288671 C 131.142925 34.032216 109.076958 11.94068 81.820503 11.94068 C 54.564048 11.94068 32.472512 34.032216 32.472512 61.288671 C 32.472512 68.013293 33.904371 74.891329 36.358986 81.43697 C 42.418817 95.090766 54.308359 105.701863 69.394014 109.537199 C 72.385576 105.855276 76.885704 103.65635 81.820503 103.65635 C 90.667345 103.65635 97.877777 110.841213 97.877777 119.713624 C 97.877777 128.560466 90.667345 135.770898 81.820503 135.770898 C 75.504983 135.770898 69.930961 132.088975 67.322933 126.59166 C 54.359497 123.753511 43.006902 117.23344 34.185629 108.309891 C 14.727691 116.619786 2.122219 129.838911 2.122219 144.771153 C 2.122219 169.930958 161.518787 169.930958 161.518787 144.771153 C 161.518787 126.13142 141.907435 110.150852 113.883913 103.093834 Z M 113.883913 103.093834 " transform="matrix(0.152773,0,0,0.152773,0,0)"/>
<path style="fill-rule:nonzero;fill:rgb(100%,100%,100%);fill-opacity:1;stroke-width:1;stroke-linecap:butt;stroke-linejoin:miter;stroke:rgb(100%,100%,100%);stroke-opacity:1;stroke-miterlimit:4;" d="M 71.644078 121.631292 C 72.564559 126.438246 76.75786 130.069031 81.820503 130.069031 C 87.547938 130.069031 92.175911 125.441059 92.175911 119.713624 C 92.175911 113.986189 87.547938 109.332647 81.820503 109.332647 C 77.422651 109.332647 73.689591 112.094089 72.181025 115.954994 C 46.10074 111.37816 26.233699 88.621833 26.233699 61.263102 C 26.233699 30.631551 51.188952 5.701866 81.820503 5.701866 C 112.477623 5.701866 137.407308 30.631551 137.407308 61.263102 L 143.083605 61.263102 C 143.083605 27.486575 115.59703 0 81.820503 0 C 48.043977 0 20.557401 27.486575 20.557401 61.263102 C 20.531833 91.587826 42.700075 116.773199 71.644078 121.631292 Z M 71.644078 121.631292 " transform="matrix(0.152773,0,0,0.152773,0,0)"/>
</g>
</svg>
