<svg fill="#FFFFFF" xmlns="http://www.w3.org/2000/svg"  viewBox="0 0 24 24" width="30px" ><path d="M 12.5 2 A 3 3 0 0 0 9.7089844 6.09375 C 9.4804148 6.0378189 9.2455412 6 9 6 L 4 6 C 2.346 6 1 7.346 1 9 L 1 14 C 1 15.654 2.346 17 4 17 L 9 17 C 10.654 17 12 15.654 12 14 L 12 9 C 12 8.6159715 11.921192 8.2518913 11.789062 7.9140625 A 3 3 0 0 0 12.5 8 A 3 3 0 0 0 12.5 2 z M 19 4 A 2 2 0 0 0 19 8 A 2 2 0 0 0 19 4 z M 4 9 L 6 9 L 7 9 L 9 9 L 9 10 L 7 10 L 7 14 L 6 14 L 6 10 L 4 10 L 4 9 z M 14 9 L 14 14 C 14 16.76 11.76 19 9 19 L 7.609375 19 C 8.519375 20.78 10.37 22 12.5 22 C 15.24 22 17.529453 20.040312 17.939453 17.320312 C 17.979453 17.050312 18 16.78 18 16.5 L 18 10 C 18 9.45 17.55 9 17 9 L 14 9 z M 19.820312 9 C 19.940312 9.31 20 9.65 20 10 L 20 16.5 C 20 16.88 19.969922 17.239375 19.919922 17.609375 C 19.849922 18.069375 19.739844 18.519219 19.589844 18.949219 C 21.519844 18.669219 23 17.01 23 15 L 23 10 C 23 9.45 22.55 9 22 9 L 19.820312 9 z"/></svg>