<svg version="1.0" xmlns="http://www.w3.org/2000/svg"
  width="30" height="30" viewBox="0 0 512.000000 512.000000"
  preserveAspectRatio="xMidYMid meet">

  <g transform="translate(0.000000,512.000000) scale(0.100000,-0.100000)"
    fill="#ffffff" stroke="none">
    <path
      d="M696 4499 c-177 -26 -327 -169 -365 -347 -6 -30 -11 -153 -11 -287
l0 -235 2056 0 2056 0 -4 258 c-5 226 -8 264 -26 314 -47 131 -146 231 -274
279 l-63 24 -1655 1 c-910 1 -1682 -2 -1714 -7z m321 -329 c40 -24 56 -54 56
-105 0 -139 -192 -172 -242 -41 -41 108 85 208 186 146z m443 4 c38 -23 60
-64 60 -113 0 -33 -7 -49 -33 -77 -58 -64 -152 -55 -198 19 -49 77 11 187 102
187 22 0 53 -7 69 -16z m472 -23 c37 -41 44 -76 27 -125 -46 -133 -240 -100
-239 41 1 79 55 127 134 120 40 -4 55 -11 78 -36z" />
    <path
      d="M320 2387 c0 -1078 -1 -1056 51 -1160 51 -101 142 -178 257 -216 61
-21 72 -21 999 -19 l937 3 23 134 c39 226 -22 152 781 953 650 648 712 707
774 736 66 32 151 56 241 67 l47 6 -2 247 -3 247 -2052 3 -2053 2 0 -1003z" />
    <path
      d="M4357 2640 c-87 -15 -145 -52 -262 -170 l-110 -110 265 -265 265
-265 108 108 c128 127 165 190 174 298 16 199 -120 371 -318 404 -35 5 -66 9
-69 9 -3 -1 -27 -5 -53 -9z" />
    <path
      d="M3334 1708 c-265 -266 -484 -491 -488 -501 -17 -50 -77 -447 -73
-481 3 -23 16 -49 33 -67 49 -51 71 -52 326 -8 127 22 238 44 247 49 9 5 230
223 491 484 l475 476 -265 265 -265 265 -481 -482z" />
  </g>
</svg>