<svg width="25" height="25" viewBox="0 0 25 25" fill="none" xmlns="http://www.w3.org/2000/svg">
  <g clip-path="url(#clip0_224_1813)">
    <path
      d="M11.0005 13.3224C11.0401 13.3221 11.0797 13.3218 11.1205 13.3214C11.251 13.3205 11.3815 13.3199 11.512 13.3194C11.557 13.3192 11.6019 13.319 11.6482 13.3188C11.8867 13.3178 12.1252 13.3171 12.3636 13.3167C12.6076 13.3161 12.8515 13.3144 13.0954 13.3125C13.2849 13.3112 13.4744 13.3108 13.664 13.3106C13.7537 13.3104 13.8435 13.3098 13.9333 13.3089C15.2259 13.2966 16.4691 13.6344 17.4245 14.5443C17.4927 14.6112 17.5599 14.6791 17.627 14.7471C17.6666 14.7868 17.7063 14.8265 17.7471 14.8674C18.531 15.6928 18.9558 16.7908 18.9509 17.9237C18.9509 17.9666 18.9509 18.0095 18.9509 18.0537C18.9508 18.1945 18.9505 18.3353 18.9501 18.4761C18.95 18.5742 18.9499 18.6722 18.9499 18.7702C18.9497 19.0275 18.9492 19.2848 18.9487 19.5421C18.9482 19.8049 18.9479 20.0677 18.9477 20.3306C18.9472 20.8457 18.9463 21.3608 18.9453 21.876C18.8534 21.9228 18.7615 21.9694 18.6695 22.0159C18.6183 22.0418 18.5671 22.0678 18.5143 22.0946C18.2845 22.2049 18.0491 22.2883 17.807 22.3673C17.7316 22.3921 17.7316 22.3921 17.6547 22.4173C14.3893 23.4603 9.5509 23.502 6.39649 21.9248C6.39421 21.4035 6.39248 20.8822 6.39143 20.361C6.39092 20.1188 6.39023 19.8767 6.38912 19.6346C6.38805 19.4003 6.38747 19.166 6.38722 18.9317C6.38704 18.843 6.38669 18.7542 6.38616 18.6654C6.3784 17.317 6.5932 16.0294 7.51953 14.9912C7.55138 14.9519 7.58323 14.9125 7.61604 14.872C8.43704 13.8896 9.72854 13.327 11.0005 13.3224Z"
      fill="#ffffff" />
    <path
      d="M5.33256 9.51174C5.40784 9.51158 5.48312 9.51142 5.5584 9.51125C5.71508 9.51096 5.87176 9.51087 6.02844 9.5109C6.2289 9.5109 6.42936 9.51023 6.62982 9.50939C6.78481 9.50885 6.93979 9.50875 7.09478 9.50878C7.16872 9.50872 7.24266 9.5085 7.31659 9.50813C7.41974 9.50765 7.52288 9.50779 7.62603 9.50808C7.68459 9.50801 7.74315 9.50794 7.80348 9.50787C7.95692 9.51978 8.06493 9.55197 8.20312 9.6176C8.2086 9.6869 8.2086 9.6869 8.21419 9.7576C8.3134 10.8202 8.71184 11.7754 9.46827 12.5347C9.57031 12.6449 9.57031 12.6449 9.57031 12.7426C9.51127 12.7663 9.45223 12.7899 9.3914 12.8143C8.66281 13.1107 8.0118 13.4305 7.42187 13.9633C7.38077 14.0004 7.33967 14.0374 7.29732 14.0756C6.01992 15.2895 5.64218 16.8808 5.58777 18.5898C5.5846 18.6836 5.5846 18.6836 5.58138 18.7794C5.57626 18.9318 5.57127 19.0843 5.5664 19.2367C3.88224 19.1035 2.2408 18.8356 0.619887 18.3481C0.559844 18.3302 0.499801 18.3122 0.437938 18.2938C0.291919 18.2502 0.145941 18.2064 -8.67993e-07 18.1625C-0.00341138 17.5831 -0.00600592 17.0037 -0.0075904 16.4242C-0.00835129 16.1551 -0.0093818 15.886 -0.0110516 15.6169C-0.012656 15.3566 -0.0135217 15.0964 -0.0138988 14.8362C-0.0141672 14.7374 -0.0146914 14.6387 -0.0154888 14.5399C-0.026039 13.1779 0.310896 11.9604 1.28517 10.9674C1.32835 10.9248 1.37153 10.8822 1.41601 10.8383C1.45214 10.8022 1.48827 10.7662 1.5255 10.729C2.58923 9.72567 3.93516 9.51243 5.33256 9.51174Z"
      fill="#ffffff" />
    <path
      d="M17.1875 9.52241C17.5997 9.52013 18.0119 9.5184 18.4241 9.51735C18.6156 9.51684 18.8071 9.51616 18.9986 9.51504C19.1842 9.51396 19.3697 9.51339 19.5552 9.51314C19.6253 9.51297 19.6953 9.51262 19.7654 9.51208C20.1462 9.50929 20.5207 9.52209 20.8992 9.56535C20.949 9.57096 20.949 9.57096 20.9999 9.57669C22.1408 9.72009 23.2404 10.3552 23.9746 11.2314C24.6108 12.0568 25.0101 13.026 25.0055 14.0751C25.0056 14.119 25.0056 14.1629 25.0056 14.2081C25.0055 14.3521 25.0052 14.496 25.0048 14.64C25.0047 14.7402 25.0046 14.8405 25.0046 14.9407C25.0044 15.2037 25.0039 15.4668 25.0034 15.7298C25.0029 15.9986 25.0026 16.2673 25.0024 16.536C25.0019 17.0627 25.001 17.5894 25 18.1162C24.8755 18.1712 24.7509 18.226 24.6264 18.2808C24.5914 18.2963 24.5564 18.3118 24.5203 18.3277C24.2523 18.4455 23.9829 18.5484 23.703 18.635C23.6358 18.6559 23.6358 18.6559 23.5672 18.6773C22.3421 19.0493 21.0557 19.2464 19.7754 19.2392C19.7749 19.1911 19.7745 19.1429 19.774 19.0933C19.774 17.7845 19.774 17.7845 19.5312 16.5048C19.5211 16.471 19.511 16.4371 19.5005 16.4022C19.2753 15.6818 18.9048 15.0216 18.4082 14.454C18.3794 14.4183 18.3507 14.3825 18.321 14.3457C17.6729 13.5641 16.7581 13.0887 15.8203 12.7451C15.895 12.5745 15.9974 12.4516 16.1194 12.3117C16.7368 11.5653 17.0606 10.6905 17.1649 9.73083C17.1691 9.69168 17.1734 9.65252 17.1778 9.61218C17.181 9.58256 17.1842 9.55293 17.1875 9.52241Z"
      fill="#ffffff" />
    <path
      d="M14.8346 6.3927C14.9561 6.48701 15.0713 6.58514 15.1855 6.68815C15.219 6.71704 15.2524 6.74593 15.2868 6.7757C15.9375 7.37523 16.3354 8.2603 16.3738 9.14062C16.3914 10.1814 16.1615 11.1325 15.4587 11.9328C14.7035 12.6869 13.7846 13.1146 12.7106 13.1426C11.6326 13.1243 10.7191 12.7274 9.96094 11.9616C9.28657 11.2408 8.95337 10.2809 8.97217 9.29988C9.04052 8.34613 9.4025 7.4032 10.1074 6.73698C11.4477 5.58397 13.3547 5.36706 14.8346 6.3927Z"
      fill="#ffffff" />
    <path
      d="M8.42934 2.63966C9.26935 3.31472 9.80282 4.14277 9.93996 5.22831C9.99385 5.77175 9.99385 5.77175 9.81445 6.00403C9.74237 6.07056 9.66788 6.13453 9.59168 6.19629C8.95312 6.76049 8.52132 7.55421 8.34961 8.3844C8.26561 8.77292 8.26561 8.77292 8.08411 8.89405C7.98187 8.93982 7.98187 8.93982 7.86133 8.98255C7.81148 9.0037 7.76163 9.02485 7.71027 9.04664C6.7621 9.43653 5.78972 9.43029 4.83189 9.07372C3.93169 8.69028 3.25957 8.03781 2.85168 7.15321C2.47051 6.20085 2.4243 5.15131 2.83203 4.19739C3.24955 3.30605 3.90742 2.56916 4.83773 2.20452C6.04294 1.77442 7.37969 1.85328 8.42934 2.63966Z"
      fill="#ffffff" />
    <path
      d="M21.1697 2.8366C21.9417 3.49485 22.3634 4.3918 22.4548 5.39721C22.4968 6.40404 22.1979 7.36825 21.5179 8.11938C20.8552 8.82303 20.0063 9.29786 19.0235 9.33951C18.415 9.35291 17.711 9.34015 17.1875 8.98608C17.1393 8.8616 17.1123 8.76415 17.0898 8.63513C17.0746 8.56429 17.059 8.49353 17.0431 8.42284C17.035 8.38664 17.0269 8.35044 17.0186 8.31314C16.7418 7.17725 15.9953 6.26798 15.0391 5.61694C15.1396 4.50086 15.5003 3.52797 16.3803 2.78205C17.8469 1.65721 19.7329 1.67887 21.1697 2.8366Z"
      fill="#ffffff" />
  </g>
  <defs>
    <clipPath id="clip0_224_1813">
      <rect width="25" height="25" fill="white" />
    </clipPath>
  </defs>
</svg>