<svg version="1.0" xmlns="http://www.w3.org/2000/svg"
  width="30" height="30" viewBox="0 0 512.000000 512.000000"
  preserveAspectRatio="xMidYMid meet">

  <g transform="translate(0.000000,512.000000) scale(0.100000,-0.100000)"
    fill="#ffffff" stroke="none">
    <path
      d="M764 4895 c-82 -18 -137 -47 -201 -107 -61 -59 -94 -112 -117 -187
-14 -49 -16 -245 -16 -2041 0 -2174 -4 -2034 56 -2136 31 -53 119 -136 173
-164 101 -51 48 -50 1901 -50 1853 0 1800 -1 1901 50 54 28 142 111 173 164
59 101 57 18 54 1582 l-3 1429 -29 65 c-27 60 -73 109 -645 684 -339 340 -638
633 -666 651 -27 17 -72 40 -100 51 -48 18 -96 19 -1235 21 -959 1 -1197 -1
-1246 -12z m848 -881 c162 -113 97 -366 -97 -382 -197 -16 -310 209 -177 352
69 74 193 87 274 30z m1466 17 c163 -84 161 -306 -3 -382 -37 -17 -74 -19
-518 -19 -451 0 -480 1 -515 19 -163 84 -161 298 3 384 26 14 93 16 513 17
456 0 485 -1 520 -19z m-1489 -857 c132 -66 157 -229 51 -334 -105 -106 -268
-81 -334 51 -43 88 -30 176 39 244 68 69 156 83 244 39z m2105 14 c57 -17 119
-82 135 -141 27 -95 -13 -195 -97 -244 l-47 -28 -805 0 -805 0 -47 28 c-84 49
-124 150 -98 245 14 53 83 127 132 141 53 15 1581 14 1632 -1z m-2146 -850
c66 -16 135 -87 151 -154 24 -98 -20 -193 -110 -238 -29 -14 -68 -26 -87 -26
-123 0 -222 99 -222 222 0 81 80 179 162 198 47 11 54 11 106 -2z m2184 -21
c84 -49 124 -149 97 -244 -16 -59 -78 -124 -135 -141 -59 -17 -1569 -17 -1628
0 -81 25 -146 118 -146 210 0 82 78 178 162 198 18 5 386 8 818 7 l785 -2 47
-28z m-2120 -863 c162 -113 97 -366 -97 -382 -197 -16 -310 209 -177 352 69
74 193 87 274 30z m2106 17 c163 -84 161 -306 -3 -382 -38 -18 -83 -19 -838
-19 -766 0 -799 1 -835 19 -163 84 -161 298 3 384 27 14 121 16 833 17 771 0
804 -1 840 -19z" />
  </g>
</svg>