<?xml version="1.0" encoding="UTF-8"?>
<svg version="1.1" xmlns="http://www.w3.org/2000/svg" width="30" height="30"
  viewBox="0 0 512.000000 512.000000"
  preserveAspectRatio="xMidYMid meet">
  <path
    d="M0 0 C1.67418848 -0.00417841 3.34837413 -0.00965869 5.02255458 -0.01631981 C9.59976909 -0.0307268 14.1768028 -0.02654458 18.75402701 -0.019153 C23.69963162 -0.01441181 28.64519765 -0.02693962 33.59078979 -0.03717041 C43.27085418 -0.0543455 52.95085361 -0.05520104 62.63092927 -0.04995751 C70.50145392 -0.04591194 78.3719594 -0.04736396 86.24248314 -0.05270576 C87.92437937 -0.0538284 87.92437937 -0.0538284 89.6402533 -0.05497371 C91.91829819 -0.05650523 94.19634308 -0.05804358 96.47438797 -0.05958868 C117.82632685 -0.07330922 139.17822908 -0.06787931 160.53016713 -0.05640347 C180.04895627 -0.046473 199.56765059 -0.05940935 219.0864251 -0.08333766 C239.14457092 -0.10774127 259.2026726 -0.11733333 279.26083297 -0.11068493 C290.51542683 -0.10719534 301.76994779 -0.10940758 313.02453041 -0.12693596 C322.60594219 -0.14167376 332.18722974 -0.14227278 341.76863912 -0.12486505 C346.65344553 -0.11636546 351.53803015 -0.11418003 356.42282486 -0.1295166 C360.90190363 -0.1434048 365.38057148 -0.1385477 369.85962673 -0.11927737 C371.47259035 -0.11552966 373.08558722 -0.11840353 374.69852111 -0.12888902 C394.16053759 -0.24632727 410.66637494 5.05316869 424.92448425 18.79393005 C436.73540125 31.38213052 442.68402282 46.44779161 442.62550354 63.5630188 C442.63003465 64.54905037 442.63456577 65.53508195 442.63923419 66.55099326 C442.6518321 69.83473877 442.65026078 73.11831744 442.64860535 76.40208435 C442.6545935 78.7649049 442.66139971 81.12772351 442.66896057 83.49053955 C442.68659936 89.89571152 442.69131509 96.30083002 442.69259214 102.70602393 C442.69358263 106.71217997 442.69816151 110.71832937 442.70358658 114.72448158 C442.72118533 127.99207767 442.7304277 141.25964151 442.72892563 154.52724936 C442.72880576 155.59837862 442.72880576 155.59837862 442.72868347 156.69114685 C442.72860171 157.40611377 442.72851995 158.12108068 442.72843571 158.85771326 C442.7276234 170.43575456 442.74675069 182.01366558 442.7749602 193.59166922 C442.80375473 205.50462173 442.81749687 217.41751084 442.81577265 229.33049899 C442.81511097 236.00875705 442.82089961 242.68689764 442.84212875 249.36513329 C442.86156279 255.65006905 442.86160006 261.93471743 442.84709549 268.21966362 C442.84501266 270.51813936 442.84967667 272.81663334 442.86181641 275.11507797 C442.96320672 295.6519537 440.44484515 312.53528411 425.701828 328.0400238 C424.9283905 328.81475037 424.154953 329.58947693 423.358078 330.38768005 C422.6465155 331.11084412 421.934953 331.83400818 421.201828 332.5790863 C405.32166019 347.74004362 385.55025206 348.98694828 364.83659363 348.88597107 C362.59945821 348.88980111 360.36232526 348.89542597 358.12519836 348.9026947 C353.33719811 348.91458107 348.54941741 348.91420618 343.76141357 348.90410042 C336.1886972 348.8884619 328.61620386 348.90226937 321.04350281 348.9201355 C310.42861786 348.94232767 299.81380081 348.95288273 289.19889832 348.95188904 C288.52735684 348.95183072 287.85581537 348.95177239 287.16392416 348.9517123 C284.4425542 348.95144642 281.72118425 348.95112913 278.9998143 348.95074904 C271.49130523 348.94978082 263.98279754 348.95111414 256.47428894 348.95384216 C255.80115262 348.95408206 255.12801631 348.95432195 254.43448192 348.95456911 C243.20501846 348.95897769 231.97559709 348.97530282 220.74615622 348.99906296 C213.21891917 349.01399183 205.69188145 349.01373105 198.16464138 349.00158513 C193.48805133 348.99687729 188.81153779 349.00438838 184.13496017 349.01512909 C181.96738505 349.01753639 179.79979715 349.01479581 177.63223648 349.00652122 C174.67285021 348.99589895 171.71405181 349.00365227 168.75468445 349.01586914 C167.89816992 349.00829309 167.0416554 349.00071703 166.15918589 348.9929114 C158.49436505 349.05997245 153.26853597 351.24257954 147.358078 356.26268005 C146.4196405 357.05416443 145.481203 357.8456488 144.514328 358.66111755 C143.46088664 359.5683973 142.40888903 360.47735515 141.358078 361.38768005 C140.76897644 361.89718201 140.17987488 362.40668396 139.57292175 362.93162537 C137.01443355 365.14693431 134.45811557 367.36467433 131.90690613 369.58836365 C127.42239616 373.49125316 122.85397292 377.27195559 118.233078 381.01268005 C114.72260162 383.91263881 111.28975073 386.89526143 107.858078 389.88768005 C102.72580144 394.36302522 97.52622527 398.72775132 92.233078 403.01268005 C89.38730257 405.36353802 86.59317481 407.76352121 83.8099823 410.18772888 C81.87966318 411.8688811 79.9412803 413.54039181 78.00260925 415.2118988 C75.73099379 417.17549861 73.50203194 419.17075727 71.30729675 421.2197113 C63.84292707 427.92391887 63.84292707 427.92391887 57.920578 428.20018005 C54.70111594 427.8833441 53.49134709 427.48194356 50.795578 425.57518005 C48.39486595 421.92192259 48.2274475 418.99334694 48.20036316 414.7263031 C48.19010101 413.56467148 48.17983887 412.40303986 48.16926575 411.20620728 C48.16196442 409.94996048 48.15466309 408.69371368 48.1471405 407.3993988 C48.12625925 405.42665901 48.10536058 403.45391921 48.08344078 401.48119068 C48.03031584 396.61521029 47.98610043 391.749224 47.95671082 386.88304138 C47.93978515 384.15371584 47.91506544 381.42467147 47.8818512 378.69549561 C47.85091133 376.12577706 47.83147002 373.55588853 47.82478333 370.98599243 C47.79479687 362.74290511 47.79479687 362.74290511 44.358078 355.38768005 C37.94212615 349.30940988 32.11683775 349.10582053 23.6783905 349.11424255 C21.52994801 349.09393028 19.38151056 349.0730791 17.233078 349.05174255 C13.87203222 349.02929655 10.51118708 349.01272947 7.15007019 349.00682068 C-15.34527218 348.94024671 -34.32466816 346.47113969 -51.02082825 330.03611755 C-51.88578918 329.16213318 -52.75075012 328.2881488 -53.641922 327.38768005 C-54.24907043 326.80244568 -54.85621887 326.2172113 -55.48176575 325.61424255 C-65.62688256 315.01165363 -70.12913123 299.27054437 -70.02287292 284.95837402 C-70.0275529 283.96922247 -70.03223287 282.98007091 -70.03705466 281.96094507 C-70.04892755 278.6786519 -70.0395776 275.39678224 -70.03010559 272.11448669 C-70.03417474 269.7481258 -70.03951854 267.3817668 -70.04603577 265.01541138 C-70.059675 258.61045495 -70.05442445 252.20564403 -70.04489851 245.80068517 C-70.03955074 241.79486975 -70.0405764 237.78906419 -70.04336929 233.78324699 C-70.04382899 233.11656464 -70.04428869 232.44988228 -70.04476232 231.76299743 C-70.04572158 230.40828907 -70.04669422 229.05358072 -70.04768009 227.69887238 C-70.0562188 215.01880367 -70.04642412 202.33880019 -70.030279 189.65874218 C-70.01688028 178.79988217 -70.01920316 167.94111841 -70.03303528 157.08226013 C-70.04912336 144.44660515 -70.05539173 131.81100725 -70.04619849 119.17534345 C-70.04524293 117.8255386 -70.04429981 116.47573375 -70.04336929 115.12592888 C-70.04290647 114.4619476 -70.04244364 113.79796633 -70.04196679 113.11386441 C-70.03938633 108.45510045 -70.04387566 103.79639292 -70.05080795 99.13763618 C-70.05950274 92.85598878 -70.05340968 86.57452231 -70.03612518 80.29289436 C-70.0321736 77.99358418 -70.03327149 75.69425866 -70.03991318 73.39495468 C-70.09723246 51.52776325 -67.04133027 34.0471475 -51.20832825 17.75486755 C-36.3917712 4.0884542 -19.67219233 -0.08025001 0 0 Z M-41.641922 36.38768005 C-48.12363005 44.0866845 -51.51231089 55.29470778 -51.0247345 65.2900238 C-50.41590271 68.62617347 -49.24778657 70.26184317 -46.641922 72.38768005 C-43.00899086 73.62442257 -41.40000247 73.73226209 -37.891922 72.13768005 C-33.96103259 69.08032162 -33.36099513 66.43457918 -32.766922 61.70018005 C-31.45768835 53.41502972 -29.12258973 47.8472672 -22.41145325 42.6337738 C-17.84033379 39.41481772 -14.07589047 38.25181396 -8.579422 37.51268005 C-4.53150237 36.90498989 -2.83945152 36.53098579 0.545578 34.07518005 C2.95202191 30.52565795 2.95202191 30.52565795 3.358078 26.38768005 C1.09354947 22.16065691 1.09354947 22.16065691 -2.641922 19.38768005 C-18.33679375 17.81819288 -31.05824146 25.41407445 -41.641922 36.38768005 Z M125.358078 64.38768005 C117.62070176 73.2819944 110.91686838 82.7468376 111.076828 94.8837738 C111.89123136 102.13422592 115.26574437 108.29534642 120.358078 113.38768005 C127.98045581 119.2260971 134.96436446 120.16739541 144.358078 119.38768005 C151.48629512 117.95238761 156.88905079 113.85446484 161.0690155 107.9853363 C161.92366394 106.69949646 161.92366394 106.69949646 162.795578 105.38768005 C166.7991177 99.44058752 171.08468099 95.72128625 177.733078 93.01268005 C186.58287954 91.4868522 194.90947426 91.72947008 202.55729675 96.86424255 C208.38016565 101.5785061 211.86112544 107.02882913 213.358078 114.38768005 C214.15472514 123.25803949 212.85094431 130.68401985 207.170578 137.70018005 C201.96709745 143.16383463 196.67511232 145.1496404 189.420578 146.82518005 C178.35245176 149.4072776 170.21483584 155.30755788 163.75260925 164.6181488 C159.89464845 172.28003734 158.89812783 179.80888093 158.92448425 188.29393005 C158.9192424 189.29927795 158.91400055 190.30462585 158.90859985 191.34043884 C158.90221898 193.45139142 158.90346515 195.56237975 158.91203308 197.67332458 C158.92055637 200.87954151 158.89170362 204.08398157 158.86003113 207.2900238 C158.85841897 209.35382536 158.85899692 211.41763003 158.86198425 213.48143005 C158.85075027 214.42651428 158.8395163 215.37159851 158.82794189 216.34532166 C158.91874916 225.13417809 161.37759572 233.3655693 167.5533905 239.84861755 C174.35965282 245.65309234 181.08813579 247.22462338 189.951828 246.8681488 C196.72105275 245.9133155 202.0206066 243.14710277 206.733078 238.20018005 C213.30363381 229.24798629 213.89885554 220.62210261 213.608078 209.76268005 C213.59003113 208.47232849 213.57198425 207.18197693 213.5533905 205.8525238 C213.50663879 202.69678307 213.44112005 199.54263905 213.358078 196.38768005 C214.22058167 196.1259198 214.22058167 196.1259198 215.10050964 195.85887146 C226.98710835 192.10079889 236.58587508 185.14478452 245.358078 176.38768005 C246.05546082 175.7018988 246.75284363 175.01611755 247.47135925 174.30955505 C262.33842533 158.72078673 268.95513286 137.48638036 268.608078 116.2509613 C267.16294006 93.91906397 257.18136319 73.50499846 240.98698425 58.13768005 C206.0576564 28.77180836 156.59028066 31.14259115 125.358078 64.38768005 Z M165.358078 266.38768005 C160.64734084 273.51123381 158.40752617 279.81932554 159.358078 288.38768005 C161.69938804 297.16424795 165.98645234 303.70543909 173.858078 308.32518005 C181.00548501 311.56519437 188.77832329 311.78499769 196.264328 309.5009613 C203.9024025 306.03852091 208.34685326 301.09641256 211.733078 293.51268005 C214.59826272 285.54313266 213.96233914 279.38679737 210.55729675 271.6806488 C207.16620905 265.19671238 202.32728665 261.27777941 195.733078 258.13768005 C184.03036447 255.53707705 173.84982447 257.70293935 165.358078 266.38768005 Z M407.358078 279.38768005 C406.6628813 281.79886863 406.26837416 284.18345974 405.873703 286.66111755 C404.5251246 293.79223667 401.69808365 300.39593565 396.358078 305.38768005 C390.20580656 309.4552039 384.31866098 311.0326371 377.0221405 311.7353363 C373.73257218 312.54084644 372.47758246 313.79286338 370.358078 316.38768005 C369.01257765 319.79628096 369.25291623 321.1054037 370.545578 324.57518005 C372.43458907 327.50640413 373.05903435 328.47127904 376.358078 329.38768005 C386.97485801 330.49359464 396.8372921 326.4145774 405.358078 320.38768005 C405.99487488 319.94682068 406.63167175 319.5059613 407.2877655 319.05174255 C415.87536284 312.44883438 421.10652328 301.81795919 423.358078 291.38768005 C424.24494135 284.71811332 424.24494135 284.71811332 422.1940155 278.55955505 C419.92465111 276.53458375 417.75154619 275.47405112 414.795578 274.82518005 C411.23685668 275.64642344 409.79602076 276.62028557 407.358078 279.38768005 Z "
    fill="#FFFFFF" transform="translate(69.64192199707031,40.61231994628906)" />
  <path
    d="M0 0 C15.15591276 9.87534587 25.90600748 24.09007658 30.09375 41.85546875 C33.3774082 60.60076164 30.31490535 78.18824219 19.5859375 94.0625 C10.1554607 106.46422291 -1.80255658 114.00401111 -16.51171875 118.58203125 C-20.05184434 119.91890756 -20.05184434 119.91890756 -22.41015625 122.6875 C-22.70538587 125.34100731 -22.82737093 127.77183453 -22.81640625 130.42578125 C-22.83266052 131.56336128 -22.83266052 131.56336128 -22.84924316 132.72392273 C-22.88351561 135.1493682 -22.89909228 137.57434426 -22.91015625 140 C-22.92477507 143.18404212 -22.95858705 146.36704431 -23.00390625 149.55078125 C-23.00088501 150.27598465 -22.99786377 151.00118805 -22.99475098 151.74836731 C-23.06368155 156.45634574 -23.88202546 159.70777356 -26.41015625 163.6875 C-30.083105 166.1361325 -33.1428459 166.51933438 -37.41015625 165.6875 C-40.6297027 163.15296343 -42.1144806 161.57452695 -43.41015625 157.6875 C-43.5437411 154.70975561 -43.62254771 151.75632907 -43.6484375 148.77734375 C-43.65650925 147.89526749 -43.66458099 147.01319122 -43.67289734 146.10438538 C-43.68673082 144.23407958 -43.69745627 142.36374862 -43.70532227 140.4934082 C-43.71680298 138.59359262 -43.73719232 136.69380829 -43.7668457 134.79418945 C-44.10007042 113.44360662 -44.10007042 113.44360662 -39.41015625 106.6875 C-34.06259113 101.48928129 -28.14261335 99.92638965 -21.00634766 98.21630859 C-11.41387385 95.83328024 -3.48335854 90.49404114 2.58984375 82.6875 C9.75672374 70.72677362 12.51324876 59.04163837 9.9375 45.17578125 C6.65898955 33.28590431 -0.20716067 23.53706972 -10.89453125 17.21875 C-22.4749909 11.18287406 -35.1797301 9.45043429 -47.78515625 13.25 C-58.42347465 17.36386804 -66.54808229 24.46259692 -72.59765625 34.0625 C-74.46877624 36.77239792 -75.29275962 37.77061864 -78.41015625 38.6875 C-83.02479499 39.17841901 -85.77150634 38.61863465 -89.41015625 35.6875 C-91.76649291 31.72457017 -91.42397335 29.08432175 -90.41015625 24.6875 C-83.25715277 10.29855967 -70.88834261 0.16830442 -55.91015625 -5.25 C-37.36982695 -11.40923102 -16.95561403 -9.95924466 0 0 Z "
    fill="#FFFFFF" transform="translate(289.41015625,104.3125)" />
  <path
    d="M0 0 C2.52685216 2.13203151 2.91636695 3.72520568 3.875 6.875 C4.03090356 10.77258889 3.07788484 12.73475239 1 16 C-2.68459187 18.45639458 -5.72230442 18.80884302 -10 18 C-13.31541064 15.60161784 -14.68360676 13.92940514 -16 10.0625 C-16 6.22476157 -15.10300954 4.1907731 -13 1 C-8.73807091 -1.7502192 -4.75811719 -1.2369299 0 0 Z "
    fill="#FFFFFF" transform="translate(262,316)" />
</svg>