<svg width="100" height="100" viewBox="0 0 100 100" fill="none" xmlns="http://www.w3.org/2000/svg">
  <g clip-path="url(#clip0_78_242)">
    <path
      d="M49.9265 -0.0612703C50.1253 -0.0608493 50.3241 -0.0604284 50.529 -0.0599947C53.3823 -0.0502934 56.1816 -0.00129014 58.9841 0.585702C59.1745 0.624506 59.3649 0.663311 59.5611 0.70329C69.0107 2.67997 77.6022 6.96054 84.5701 13.6716C84.7632 13.8568 84.7632 13.8568 84.9603 14.0458C86.8135 15.8318 88.5205 17.6477 90.0388 19.7263C90.2064 19.9511 90.374 20.176 90.5416 20.4008C91.7209 22.0006 92.7675 23.6634 93.7498 25.3904C93.821 25.5138 93.8921 25.6372 93.9655 25.7643C98.1854 33.137 100.093 41.4899 100.061 49.9265C100.06 50.1253 100.06 50.3241 100.06 50.529C100.05 53.3823 100.001 56.1816 99.4138 58.9841C99.3556 59.2697 99.3556 59.2697 99.2962 59.5611C97.3195 69.0107 93.039 77.6022 86.3279 84.5701C86.2044 84.6989 86.081 84.8276 85.9538 84.9603C84.1677 86.8135 82.3518 88.5205 80.2732 90.0388C80.0484 90.2064 79.8236 90.374 79.5988 90.5416C77.9992 91.7208 76.3386 92.7721 74.6091 93.7498C74.471 93.8283 74.3329 93.9069 74.1906 93.9878C69.6719 96.5318 64.7557 98.2406 59.6799 99.2795C59.5395 99.3083 59.3991 99.3371 59.2545 99.3668C56.3881 99.9116 53.5512 100.068 50.639 100.061C50.0648 100.061 49.4909 100.065 48.9168 100.07C46.3048 100.079 43.7861 99.8436 41.2107 99.4138C40.8776 99.3587 40.8776 99.3587 40.5377 99.3025C32.0871 97.7845 24.0695 93.8808 17.5779 88.281C17.4324 88.1571 17.2868 88.0333 17.1369 87.9056C14.4992 85.5988 12.0243 83.1084 9.9607 80.2732C9.79342 80.0486 9.62608 79.824 9.45869 79.5995C8.27899 77.9999 7.22756 76.3389 6.24976 74.6091C6.17121 74.471 6.09266 74.3329 6.01173 74.1906C3.4677 69.6719 1.75894 64.7557 0.71998 59.6799C0.691199 59.5395 0.662419 59.3991 0.632766 59.2545C0.0519347 56.1985 -0.0730874 53.1764 -0.0612703 50.073C-0.0608493 49.8742 -0.0604284 49.6754 -0.0599947 49.4706C-0.0502934 46.6172 -0.00129014 43.818 0.585702 41.0154C0.624506 40.825 0.663311 40.6346 0.70329 40.4384C2.67997 30.9888 6.96054 22.3974 13.6716 15.4295C13.7951 15.3007 13.9186 15.1719 14.0458 15.0392C15.8318 13.186 17.6477 11.479 19.7263 9.9607C19.9511 9.79311 20.176 9.62552 20.4008 9.45792C22.0003 8.27872 23.661 7.22739 25.3904 6.24976C25.5285 6.17121 25.6666 6.09266 25.809 6.01173C30.3276 3.4677 35.2438 1.75894 40.3196 0.71998C40.46 0.691199 40.6004 0.662419 40.7451 0.632766C43.801 0.0519347 46.8231 -0.0730874 49.9265 -0.0612703Z"
      fill="#062d72" />
    <path
      d="M77.0707 28.2041C78.7515 29.2806 79.8961 30.7531 80.3834 32.7024C80.6941 34.5221 80.5139 36.2663 79.4661 37.8304C78.2301 39.4887 76.7276 40.9067 75.2676 42.3641C74.9562 42.6763 74.6449 42.9887 74.3336 43.3011C73.4916 44.1457 72.6483 44.9891 71.8047 45.8323C71.0995 46.5372 70.395 47.2427 69.6904 47.9482C67.9334 49.7075 66.1752 51.4655 64.4164 53.2231C62.8912 54.7473 61.3675 56.2731 59.8447 57.7997C58.2778 59.3703 56.7099 60.9398 55.1408 62.5082C54.2612 63.3875 53.3819 64.2673 52.5038 65.1481C51.6784 65.976 50.8515 66.8025 50.0236 67.6278C49.7205 67.9305 49.4178 68.2337 49.1157 68.5375C48.7024 68.9528 48.2873 69.3662 47.8718 69.7793C47.7534 69.8991 47.635 70.019 47.5131 70.1424C45.8939 71.7414 44.2456 72.5245 41.9557 72.5584C41.8231 72.5664 41.6906 72.5745 41.554 72.5828C39.8126 72.6086 38.22 71.6531 36.963 70.5086C36.6598 70.2117 36.3598 69.9117 36.0624 69.609C35.896 69.4444 35.7296 69.2797 35.5581 69.11C35.1081 68.6634 34.6607 68.2143 34.2146 67.7637C33.7441 67.2894 33.2705 66.8181 32.7975 66.3463C32.0043 65.5544 31.2136 64.7602 30.4243 63.9644C29.5153 63.0481 28.6025 62.1357 27.6876 61.2252C26.8025 60.3442 25.9202 59.4604 25.039 58.5754C24.6662 58.201 24.2925 57.8277 23.9179 57.4551C23.3944 56.9331 22.8742 56.4081 22.3547 55.8822C22.1244 55.6544 22.1244 55.6544 21.8895 55.4221C20.2021 53.6988 19.4592 51.9628 19.4429 49.5623C19.483 47.734 20.2105 46.3712 21.4357 45.0315C23.0385 43.5549 24.7946 43.0898 26.9265 43.1081C28.9028 43.2878 30.4619 44.4551 31.8068 45.8401C31.9143 45.9491 32.0218 46.0581 32.1325 46.1704C32.3641 46.4054 32.5952 46.6408 32.826 46.8767C33.191 47.2495 33.5576 47.6208 33.9246 47.9917C34.9673 49.0457 36.0081 50.1016 37.046 51.1604C37.6823 51.8092 38.3209 52.4556 38.961 53.1006C39.2044 53.3468 39.4469 53.5939 39.6885 53.8419C40.0251 54.1875 40.3646 54.5299 40.7049 54.8718C40.8044 54.9753 40.9038 55.0789 41.0063 55.1856C41.3121 55.5002 41.3121 55.5002 41.797 55.8591C42.6429 55.8412 43.1386 55.1808 43.6923 54.6149C43.8028 54.5045 43.9132 54.394 44.027 54.2802C44.3975 53.9088 44.7659 53.5354 45.1343 53.1619C45.3992 52.8956 45.6643 52.6293 45.9294 52.3632C46.5007 51.7894 47.0711 51.2147 47.6409 50.6393C48.5422 49.7292 49.4458 48.8214 50.3498 47.9139C52.5954 45.6591 54.8381 43.4013 57.0799 41.1426C58.821 39.3885 60.563 37.6353 62.3076 35.8848C63.2059 34.9833 64.1024 34.0799 64.9975 33.1752C65.5556 32.6118 66.1154 32.0501 66.6756 31.4888C66.9345 31.2287 67.1928 30.968 67.4503 30.7065C67.8029 30.3487 68.1578 29.9935 68.5134 29.6387C68.6139 29.5355 68.7145 29.4322 68.8181 29.3259C69.5594 28.5937 70.3387 28.1524 71.2892 27.7342C71.4705 27.6536 71.6517 27.573 71.8385 27.49C73.6608 27.0612 75.4313 27.3179 77.0707 28.2041Z"
      fill="#FEFEFE" />
  </g>
  <defs>
    <clipPath id="clip0_78_242">
      <rect width="100" height="100" fill="white" />
    </clipPath>
  </defs>
</svg>