<svg width="60" height="60" viewBox="0 0 60 60" fill="none" xmlns="http://www.w3.org/2000/svg">
  <path
    d="M35.4588 6.04176C37.3536 7.52579 38.4528 9.59074 38.8696 11.94C39.0578 13.9175 38.7088 15.5638 37.9083 17.3529C37.236 18.8565 36.7124 20.4038 36.4453 22.0328C36.4213 22.178 36.3973 22.3232 36.3725 22.4727C35.8832 25.9026 36.0204 29.7433 36.8495 33.1025C36.9141 33.4 36.9141 33.4 36.9141 33.8688C32.3508 33.8688 27.7875 33.8688 23.0859 33.8688C23.1633 33.4047 23.2406 32.9406 23.3203 32.4625C23.3825 32.0696 23.4438 31.6766 23.5034 31.2833C23.5182 31.1887 23.5329 31.094 23.5481 30.9965C24.2771 26.1835 23.8475 21.3739 21.8956 16.9152C20.9096 14.6225 20.7792 12.1636 21.709 9.81602C22.8859 7.22686 24.6349 5.67593 27.2484 4.64329C30.0067 3.76409 33.1415 4.33546 35.4588 6.04176Z"
    fill="#062d72" />
  <path
    d="M11.6016 43.2422C23.7445 43.2422 35.8875 43.2422 48.3984 43.2422C48.3984 45.2531 48.3984 47.2641 48.3984 49.3359C36.2555 49.3359 24.1125 49.3359 11.6016 49.3359C11.6016 47.325 11.6016 45.3141 11.6016 43.2422Z"
    fill="#062d72" />
  <path
    d="M18.5698 35.139C18.6708 35.1386 18.7718 35.1382 18.8759 35.1377C19.215 35.1364 19.5542 35.136 19.8933 35.1355C20.1363 35.1348 20.3792 35.134 20.6221 35.1332C21.4205 35.1307 22.2189 35.1295 23.0173 35.1284C23.2922 35.1279 23.5672 35.1274 23.8421 35.1269C25.1339 35.1247 26.4258 35.123 27.7176 35.122C29.2082 35.1209 30.6988 35.1178 32.1894 35.1131C33.3419 35.1095 34.4944 35.1078 35.6469 35.1074C36.3351 35.1071 37.0232 35.1061 37.7113 35.1031C38.3591 35.1004 39.0068 35.0999 39.6545 35.1011C39.8917 35.1012 40.129 35.1004 40.3662 35.0988C41.9255 35.0888 43.1481 35.1176 44.3344 36.2444C45.9449 37.8885 45.5859 39.6193 45.5859 41.9532C35.2992 41.9532 25.0125 41.9532 14.4141 41.9532C14.4141 37.5454 14.4141 37.5454 15.7397 36.1231C16.5736 35.3256 17.4469 35.1388 18.5698 35.139Z"
    fill="#062d72" />
  <path
    d="M14.4141 50.625C24.7008 50.625 34.9875 50.625 45.5859 50.625C45.5859 52.2879 45.5859 53.9508 45.5859 55.6641C35.2992 55.6641 25.0125 55.6641 14.4141 55.6641C14.4141 54.0012 14.4141 52.3383 14.4141 50.625Z"
    fill="#062d72" />
</svg>