<?xml version="1.0" encoding="UTF-8"?>
<svg xmlns="http://www.w3.org/2000/svg" xmlns:xlink="http://www.w3.org/1999/xlink" width="35px" height="35px" viewBox="0 0 35 35" version="1.1">
<g id="surface1">
<path style=" stroke:none;fill-rule:nonzero;fill:rgb(2.352941%,17.647059%,44.705883%);fill-opacity:1;" d="M 20.097656 8.070312 C 20.097656 4.847656 17.484375 2.234375 14.261719 2.234375 C 11.039062 2.234375 8.429688 4.847656 8.429688 8.070312 C 8.429688 11.292969 11.039062 13.902344 14.261719 13.902344 C 17.484375 13.902344 20.097656 11.292969 20.097656 8.070312 Z M 20.097656 8.070312 "/>
<path style=" stroke:none;fill-rule:nonzero;fill:rgb(2.352941%,17.647059%,44.705883%);fill-opacity:1;" d="M 15.984375 30.9375 C 15.324219 30.285156 15.171875 29.273438 15.613281 28.457031 L 16.128906 27.484375 L 15.070312 27.164062 C 14.179688 26.886719 13.585938 26.050781 13.609375 25.121094 L 13.609375 23.128906 C 13.609375 22.203125 14.214844 21.386719 15.097656 21.117188 L 16.160156 20.796875 L 15.652344 19.824219 C 15.226562 19.019531 15.363281 18.03125 15.992188 17.375 C 15.246094 17.277344 14.492188 17.222656 13.738281 17.21875 C 9.226562 17.113281 4.902344 19.023438 1.945312 22.429688 L 1.945312 29.964844 C 1.945312 30.5 2.378906 30.9375 2.917969 30.9375 Z M 15.984375 30.9375 "/>
<path style=" stroke:none;fill-rule:nonzero;fill:rgb(2.352941%,17.647059%,44.705883%);fill-opacity:1;" d="M 32.765625 22.808594 L 30.820312 22.226562 C 30.683594 21.746094 30.496094 21.28125 30.253906 20.84375 L 31.226562 19.035156 C 31.304688 18.898438 31.277344 18.722656 31.160156 18.617188 L 29.75 17.199219 C 29.640625 17.089844 29.472656 17.0625 29.332031 17.128906 L 27.535156 18.101562 C 27.089844 17.863281 26.625 17.667969 26.144531 17.519531 L 25.550781 15.574219 C 25.496094 15.429688 25.355469 15.332031 25.199219 15.332031 L 23.179688 15.332031 C 23.023438 15.335938 22.886719 15.4375 22.835938 15.585938 L 22.253906 17.527344 C 21.761719 17.671875 21.289062 17.871094 20.84375 18.121094 L 19.085938 17.148438 C 18.945312 17.074219 18.773438 17.097656 18.65625 17.207031 L 17.226562 18.609375 C 17.113281 18.71875 17.085938 18.894531 17.160156 19.035156 L 18.132812 20.804688 C 17.871094 21.246094 17.660156 21.710938 17.5 22.195312 L 15.554688 22.789062 C 15.40625 22.832031 15.300781 22.972656 15.304688 23.128906 L 15.304688 25.121094 C 15.300781 25.28125 15.40625 25.417969 15.554688 25.460938 L 17.5 26.054688 C 17.644531 26.53125 17.839844 26.992188 18.082031 27.425781 L 17.109375 29.273438 C 17.035156 29.414062 17.0625 29.589844 17.179688 29.703125 L 18.628906 31.109375 C 18.742188 31.21875 18.914062 31.242188 19.054688 31.167969 L 20.875 30.195312 C 21.304688 30.429688 21.761719 30.617188 22.234375 30.75 L 22.816406 32.746094 C 22.867188 32.894531 23.007812 32.996094 23.167969 32.996094 L 25.160156 32.996094 C 25.316406 32.992188 25.453125 32.890625 25.5 32.746094 L 26.085938 30.75 C 26.550781 30.617188 27 30.429688 27.425781 30.195312 L 29.265625 31.167969 C 29.402344 31.242188 29.578125 31.21875 29.691406 31.109375 L 31.109375 29.703125 C 31.21875 29.585938 31.242188 29.414062 31.167969 29.273438 L 30.195312 27.445312 C 30.429688 27.019531 30.617188 26.570312 30.75 26.105469 L 32.695312 25.511719 C 32.84375 25.464844 32.949219 25.328125 32.957031 25.171875 L 32.957031 23.160156 C 32.964844 23.015625 32.886719 22.878906 32.765625 22.808594 Z M 24.179688 27.398438 C 22.382812 27.402344 20.925781 25.949219 20.921875 24.15625 C 20.917969 22.363281 22.371094 20.90625 24.167969 20.902344 C 25.960938 20.902344 27.417969 22.355469 27.417969 24.148438 C 27.417969 25.941406 25.96875 27.390625 24.179688 27.398438 Z M 24.179688 27.398438 "/>
</g>
</svg>
