<svg width="29" height="30" viewBox="0 0 29 30" fill="none" xmlns="http://www.w3.org/2000/svg">
  <path
    d="M13.7095 0.0898209C13.5944 0.136707 13.4188 0.248068 13.328 0.335983C12.9949 0.640755 12.9525 0.77556 12.9222 1.71918L12.8919 2.59247L12.3347 2.69797C11.2688 2.90897 10.112 3.38371 9.10667 4.02842C8.39807 4.48558 7.18074 5.6695 6.69017 6.37869C6.0482 7.31645 5.58791 8.35971 5.33354 9.46158C5.23058 9.93046 5.21242 10.2997 5.17002 12.8024C5.12157 15.9087 5.09129 16.231 4.71579 17.3212C4.25551 18.6692 3.56508 19.7183 2.42648 20.8202C1.43323 21.7697 1.32422 21.9748 1.32422 22.8247C1.32422 23.3463 1.34239 23.446 1.48774 23.739C1.80873 24.3661 2.44465 24.8292 3.16536 24.964C3.6317 25.046 24.7685 25.046 25.253 24.9581C25.9434 24.835 26.5793 24.3661 26.9003 23.739C27.0457 23.446 27.0638 23.3463 27.0638 22.8247C27.0638 21.9807 26.9427 21.758 26.0161 20.873C25.2288 20.1228 24.8775 19.6949 24.4535 19.0033C23.9206 18.1417 23.5633 17.1981 23.3694 16.1724C23.2786 15.7211 23.2544 15.094 23.218 12.8024C23.1817 10.2938 23.1635 9.93046 23.0545 9.46158C22.6487 7.715 21.8796 6.37283 20.5593 5.08926C19.2511 3.82915 17.7552 3.03205 16.0533 2.69797L15.4962 2.59247L15.4659 1.71918C15.4356 0.77556 15.3932 0.640755 15.0601 0.335983C14.7088 0.00776672 14.1456 -0.0918713 13.7095 0.0898209Z"
    fill="#062d72" />
  <path
    d="M5.17007 1.01001C4.7643 1.12723 3.48034 2.53387 2.61428 3.79399C0.985115 6.18528 0.0524327 9.09234 0.00398166 11.9115C-0.0081311 12.6617 -0.00207472 12.691 0.161448 12.9665C0.615676 13.7108 1.66343 13.8105 2.23273 13.1657C2.4871 12.8786 2.56583 12.6383 2.56583 12.1225C2.56583 10.3993 3.1109 8.22491 3.9588 6.57211C4.59472 5.32371 5.28515 4.36837 6.26628 3.35441C6.79924 2.80934 6.89009 2.63351 6.89009 2.19393C6.89009 1.2972 6.07853 0.740402 5.17007 1.01001Z"
    fill="#062d72" />
  <path
    d="M22.34 1.0042C21.8009 1.18589 21.4194 1.76027 21.4799 2.28776C21.5284 2.68044 21.6314 2.84455 22.2007 3.43651C24.2235 5.54648 25.4893 8.28357 25.7558 11.132C25.7921 11.5013 25.8224 11.9643 25.8224 12.1577C25.8224 12.6442 25.9132 12.9196 26.1615 13.1834C26.7369 13.7988 27.7846 13.6991 28.2025 12.9958C28.4145 12.6383 28.4387 12.3921 28.3661 11.3723C28.0996 7.69747 26.7187 4.55597 24.169 1.80129C23.4301 1.0042 22.9516 0.799061 22.34 1.0042Z"
    fill="#062d72" />
  <path
    d="M9.47021 26.3413C9.47021 26.5347 9.84571 27.408 10.1001 27.8007C11.1418 29.4066 13.1646 30.2741 15.0542 29.9224C16.3805 29.6762 17.4889 28.9612 18.2399 27.8652C18.5063 27.4784 18.9121 26.5758 18.9182 26.3531C18.9182 26.2593 18.6517 26.2534 14.1942 26.2534C10.0759 26.2534 9.47021 26.2651 9.47021 26.3413Z"
    fill="#062d72" />
</svg>