<svg width="28" height="30" viewBox="0 0 28 30" fill="none" xmlns="http://www.w3.org/2000/svg">
  <g clip-path="url(#clip0_224_1642)">
    <path
      d="M12.7922 0.0180779C10.8393 0.252849 9.20785 1.02172 7.84932 2.35405C6.6424 3.53377 5.95101 4.78979 5.59318 6.43906C5.44762 7.13163 5.44762 8.68112 5.59318 9.37369C5.95101 11.023 6.64847 12.2848 7.84932 13.4587C9.06836 14.6502 10.4026 15.3486 12.1251 15.6949C12.8347 15.8358 14.4297 15.8358 15.1696 15.6949C16.8072 15.3779 18.1657 14.6736 19.3787 13.5115C20.6038 12.3435 21.3316 11.0406 21.6894 9.37369C21.8349 8.68112 21.8349 7.13163 21.6894 6.43906C21.4529 5.35324 21.0223 4.3496 20.4036 3.44573C20.0215 2.88815 18.8389 1.73777 18.2749 1.37975C17.2984 0.751737 16.2431 0.32328 15.206 0.129594C14.7148 0.0356855 13.2167 -0.0347452 12.7922 0.0180779Z"
      fill="#062d72" />
    <path
      d="M10.3844 17.6511C6.9881 18.0502 3.92533 19.9107 1.95424 22.7808C0.795848 24.4594 0.134775 26.4432 0.0195424 28.562C-0.0168469 29.2135 -0.010782 29.2898 0.110516 29.5187C0.195424 29.6831 0.316722 29.8004 0.480474 29.8826C0.717004 30 0.807977 30 13.6413 30C26.4746 30 26.5655 30 26.8021 29.8826C26.9658 29.8004 27.0871 29.6831 27.172 29.5187C27.2933 29.2898 27.2994 29.2135 27.263 28.562C27.1053 25.6685 25.9651 23.133 23.8909 21.0552C21.9259 19.089 19.3908 17.8917 16.6191 17.6159C15.7033 17.5278 11.2275 17.5513 10.3844 17.6511Z"
      fill="#062d72" />
  </g>
  <defs>
    <clipPath id="clip0_224_1642">
      <rect width="27.28" height="30" fill="white" />
    </clipPath>
  </defs>
</svg>